<svg data-v-0dd9719b="" version="1.0" xmlns="http://www.w3.org/2000/svg" xmlns:xlink="http://www.w3.org/1999/xlink" width="100%" height="100%" viewBox="0 0 340.000000 250.000000" preserveAspectRatio="xMidYMid meet" color-interpolation-filters="sRGB" style="margin: auto;"> <rect data-v-0dd9719b="" x="0" y="0" width="100%" height="100%" fill="#fff" fill-opacity="1" class="background"></rect> <rect data-v-0dd9719b="" x="0" y="0" width="100%" height="100%" fill="url(#watermark)" fill-opacity="1" class="watermarklayer"></rect> <g data-v-0dd9719b="" fill="#333" class="icon-text-wrapper icon-svg-group iconsvg" transform="translate(49.49000549316406,96.53374862670898)"><g class="iconsvg-imagesvg" transform="translate(0,2.4735469818115234)"><g><rect fill="#333" fill-opacity="0" stroke-width="2" x="0" y="0" width="60" height="51.985409428420425" class="image-rect"></rect> <svg x="0" y="0" width="60" height="51.985409428420425" filtersec="colorsb2158008734" class="image-svg-svg primary" style="overflow: visible;"><svg xmlns="http://www.w3.org/2000/svg" viewBox="0 0 167.6199951171875 145.23001098632812"><g fill-rule="evenodd"><path d="M64.36 19.61a146.84 146.84 0 0 1-22.15 19.72C32.53 46.46 19.92 54.54 0 67c13.76 5.28 25.15 9.63 35 13.8 11.36-15.67 17.39-25.13 21.36-34.09 3.67-8.28 5.65-16.2 8-27.1z" fill="#a5bf0c"></path><path d="M137.71 35.19a173.72 173.72 0 0 1-26-13.88C103.3 15.86 94.15 9.18 81.78 0c-4.11 5.44-7.94 10.24-11.89 14.73C86 21.79 96.17 26.06 105.82 29s18.51 4.5 31.89 6.18z" fill="#cbdd5f"></path><path d="M138.16 101.68c4-12.2 7.31-20.15 12-28.14 4.4-7.36 9.84-14.67 17.46-24.54-9.78-3.55-17.75-6.54-24.67-9.36-3.36 11.15-5.16 18.45-5.82 26.47-.69 8.6-.13 18 1 35.56z" fill="#3bd0f2"></path><path d="M65.16 60.82C63 64.58 60.3 68.84 56.88 74 80 76.29 89.8 77.46 104.4 82.91 89.51 70.56 84.11 68.22 65.16 60.82z" fill="#34b1e2"></path><path d="M89.83 32.64c-3.8-1.56-8.13-3.46-13.32-5.77-1.9 13.23-3.16 19.61-9.08 30.27 12.77-9.89 16-13.32 22.4-24.5z" fill="#a5bf0c"></path><path d="M127 52c.91-2.91 2.05-6.16 3.45-9.95-17.54-1.85-24.64-3-37.15-8C106.47 44.28 110.21 46.22 127 52z" fill="#cbdd5f"></path><path d="M124.41 91c-.39-20.09-.86-25 2.31-35.62-10.45 11.09-11.41 12.27-18.16 28.72 4.55 1.81 9.7 4.09 15.85 6.9z" fill="#3bd0f2"></path><path d="M126.23 145.23c4.22-15.12 7.39-26.47 10.12-35.54-19.13-8.85-31.91-14-44.54-17.27C79 89.09 66 87.48 46.25 85.75a198.8 198.8 0 0 1 36.09 21.12c12.08 8.91 25.4 20.7 43.89 38.36z" fill="#34b1e2"></path></g></svg></svg> <!----></g></g> <g transform="translate(67,0)"><g data-gra="path-name" fill-rule="" class="tp-name iconsvg-namesvg" transform="translate(0,0)"><g transform="scale(1)"><g><path d="M26.89-36.21L26.89-36.21Q31.29-36.21 32.7-35.68L32.7-35.68Q32.7-35.51 32.17-34.98L32.17-34.98Q31.46-34.1 31.46-33.75L31.46-33.75Q31.46-30.41 31.46-29.71L31.46-29.71 35.33-29.71Q38.85-29.71 41.84-30.06L41.84-30.06 41.84-26.19Q40.78-26.54 35.51-26.54L35.51-26.54 31.46-26.54Q31.29-22.32 30.76-15.64L30.76-15.64Q30.94-16.17 30.76-14.77L30.76-14.77 35.51-14.77Q40.96-14.77 42.36-15.12L42.36-15.12 42.36-11.07Q40.61-11.6 36.04-11.6L36.04-11.6 32.17-11.6Q34.1-3.16 43.95 0L43.95 0Q41.48 1.05 40.08 3.69L40.08 3.69Q31.11-1.58 30.23-11.43L30.23-11.43Q28.3-0.88 15.47 4.22L15.47 4.22Q14.41 2.46 11.43 0.7L11.43 0.7Q23.73-1.58 26.37-11.78L26.37-11.78 24.61-11.78Q19.86-11.78 18.11-11.43L18.11-11.43 18.11-15.12Q19.86-14.77 24.43-14.77L24.43-14.77 26.89-14.77Q27.6-20.57 27.6-26.54L27.6-26.54 25.49-26.54Q20.74-26.54 18.28-26.19L18.28-26.19 18.28-30.06Q18.46-30.06 19.16-30.06L19.16-30.06Q23.38-29.53 25.66-29.71L25.66-29.71 27.6-29.71Q27.6-34.63 26.89-36.21ZM3.52-33.93L3.52-33.93Q4.75-33.57 9.14-33.57L9.14-33.57Q10.37-33.57 10.9-33.57L10.9-33.57Q11.43-33.57 12.48-33.57L12.48-33.57Q17.05-33.4 18.46-33.93L18.46-33.93Q18.11-33.22 17.93-32.52L17.93-32.52Q16.17-28.3 13.36-22.15L13.36-22.15Q13.01-21.27 12.66-20.39L12.66-20.39Q19.69-12.83 15.64-6.86L15.64-6.86Q13.36-4.57 9.67-4.22L9.67-4.22Q9.49-6.86 7.91-8.61L7.91-8.61Q11.07-8.09 12.48-9.32L12.48-9.32Q15.47-12.83 8.96-20.04L8.96-20.04 13.18-30.41 7.56-30.41 7.56-6.33Q7.56-0.18 7.56 0.88L7.56 0.88Q7.73 2.99 7.91 3.69L7.91 3.69 3.52 3.69Q3.87 2.46 3.87-6.33L3.87-6.33 3.87-25.14Q3.87-30.23 3.52-33.93ZM35.33-24.43L35.33-24.43Q39.9-23.91 40.25-23.38L40.25-23.38Q40.25-23.2 39.9-23.03L39.9-23.03Q38.32-21.45 36.91-16.7L36.91-16.7Q35.51-17.23 32.87-17.23L32.87-17.23Q34.8-21.09 35.33-24.43ZM18.81-23.55L22.68-24.26Q23.03-23.55 23.73-20.92L23.73-20.92Q24.43-18.63 24.61-17.93L24.61-17.93 20.74-17.23Q20.39-20.92 18.81-23.55L18.81-23.55ZM87.71-34.1L87.71-34.1 87.71-30.06Q86.31-30.41 81.21-30.41L81.21-30.41 73.65-30.41 73.65-23.55 78.57-23.55Q82.97-23.55 84.2-23.91L84.2-23.91Q84.2-23.91 84.2-23.55L84.2-23.55Q83.85-21.45 83.85-18.81L83.85-18.81 83.85-2.46Q83.85-0.88 84.2 3.34L84.2 3.34 79.98 3.34Q79.98 3.87 80.16 1.58L80.16 1.58Q80.16 0.53 80.16-0.35L80.16-0.35 55.2-0.35Q55.2 1.58 55.37 3.34L55.37 3.34 51.5 3.34Q51.68 2.29 51.68-1.93L51.68-1.93 51.68-19.16Q51.68-21.27 51.5-23.38L51.5-23.38Q51.5-23.73 51.5-23.91L51.5-23.91Q53.44-23.55 56.07-23.55L56.07-23.55 61.52-23.55 61.52-30.41 54.32-30.41Q49.75-30.41 47.81-30.06L47.81-30.06 47.81-34.1Q50.45-33.57 54.14-33.57L54.14-33.57 81.04-33.57Q85.43-33.57 87.71-34.1ZM70.14-23.55L70.14-30.41 65.04-30.41 65.04-23.55 70.14-23.55ZM80.33-3.52L80.33-20.39 73.65-20.39 73.65-13.36Q73.48-10.72 79.1-13.01L79.1-13.01Q78.93-12.13 78.93-10.9L78.93-10.9Q78.93-9.67 78.93-8.79L78.93-8.79Q68.73-7.03 70.14-12.48L70.14-12.48 70.14-20.39 64.86-20.39Q64.51-12.13 58.89-7.03L58.89-7.03Q57.3-8.61 55.55-9.67L55.55-9.67Q61.7-12.66 61.52-20.39L61.52-20.39 55.2-20.39 55.2-3.52 80.33-3.52ZM100.55-36.04L100.55-36.04Q104.24-34.45 104.59-33.57L104.59-33.57Q103.54-32.87 99.67-28.3L99.67-28.3Q96.33-24.43 94.57-22.5L94.57-22.5Q93.34-24.61 91.76-25.31L91.76-25.31Q97.21-29 100.55-36.04ZM107.05-31.64L109.51-34.28Q112.85-31.82 116.02-29.18L116.02-29.18 113.55-26.37Q110.04-30.06 107.05-31.64L107.05-31.64ZM117.95-29L117.95-32.7Q119.71-32.34 121.46-32.34L121.46-32.34 127.79-32.34Q129.73-32.34 131.48-32.52L131.48-32.52 131.48-29Q131.31-28.83 129.9-29L129.9-29Q128.32-29.18 127.62-29.18L127.62-29.18 121.46-29.18Q120.06-29.18 117.95-29L117.95-29ZM101.07-26.19L101.07-26.19Q104.77-23.73 104.77-23.38L104.77-23.38Q104.77-23.2 104.41-23.2L104.41-23.2Q103.54-22.85 103.01-21.62L103.01-21.62Q103.01-21.62 102.83-21.45L102.83-21.45Q101.95-20.39 100.72-18.28L100.72-18.28 100.72-2.64Q100.72 0.53 101.07 4.04L101.07 4.04 96.68 4.04Q97.38 2.11 97.38-2.64L97.38-2.64 97.38-14.41Q97.21-14.24 96.15-13.01L96.15-13.01Q94.75-11.6 93.52-10.2L93.52-10.2Q92.46-12.3 91.41-13.54L91.41-13.54Q99.32-20.39 101.07-26.19ZM105.64-21.45L107.93-24.26Q109.86-22.85 114.08-19.51L114.08-19.51 111.45-16.7Q108.28-19.86 105.64-21.45L105.64-21.45ZM115.31-19.16L115.31-23.03Q118.13-22.68 120.76-22.68L120.76-22.68 127.97-22.68Q132.54-22.68 133.24-23.03L133.24-23.03 133.24-18.98Q131.84-19.16 129.2-19.16L129.2-19.16 127.09-19.16 127.09-0.53Q128.32 3.69 119.36 4.04L119.36 4.04Q119.53 1.58 117.95-0.18L117.95-0.18Q123.93 0.18 123.57-1.93L123.57-1.93 123.57-5.45 123.57-19.34 120.76-19.34Q115.31-19.34 115.31-19.16L115.31-19.16ZM110.92-14.59L110.92-14.59Q112.32-12.83 114.26-12.13L114.26-12.13Q113.2-9.49 111.8-5.98L111.8-5.98Q109.16 0.88 108.98 1.93L108.98 1.93Q108.28 1.58 106 0.53L106 0.53Q105.12 0.18 104.59 0L104.59 0Q108.11-4.04 110.92-14.59ZM153.11-32.52L156.97-34.8Q159.61-31.99 163.3-26.19L163.3-26.19 158.91-23.91Q156.8-28.3 153.11-32.52L153.11-32.52ZM149.59-24.26L149.59-24.26Q154.69-23.73 154.51-23.03L154.51-23.03Q154.51-22.68 154.16-22.32L154.16-22.32Q153.81-21.62 153.81-20.92L153.81-20.92Q153.46-14.77 153.46-3.69L153.46-3.69Q153.11-0.7 155.39-0.88L155.39-0.88Q159.43-0.35 162.07-1.05L162.07-1.05Q164.18-2.11 164.18-6.68L164.18-6.68Q166.29-4.92 168.4-4.39L168.4-4.39Q167.52 0.18 165.94 1.41L165.94 1.41Q164.53 2.46 160.66 2.81L160.66 2.81Q155.74 2.99 152.75 2.29L152.75 2.29Q149.06 1.93 149.59-1.58L149.59-1.58Q149.59-1.58 149.59-1.93L149.59-1.93Q149.94-19.69 149.59-24.26ZM165.94-20.04L169.8-22.15Q174.73-14.94 177.54-9.32L177.54-9.32 172.79-7.03Q171.39-11.6 165.94-20.04L165.94-20.04ZM141.5-21.45L141.5-21.45 146.43-20.57Q144.67-12.48 142.03-4.57L142.03-4.57Q139.39-5.45 137.11-5.8L137.11-5.8Q140.27-12.13 141.5-21.45Z" transform="translate(-3.5199999809265137, 36.209999084472656)"></path></g> <!----> <!----> <!----> <!----> <!----> <!----> <!----></g></g> <g data-gra="path-slogan" fill-rule="" class="tp-slogan iconsvg-slogansvg" fill="#333" transform="translate(5,46.43000030517578)"><rect x="0" height="1" y="4.75" width="27.84499740600586"></rect> <rect height="1" y="4.75" width="27.84499740600586" x="136.17499160766602"></rect> <g transform="translate(30.84499740600586,0)"><g transform="scale(1)"><path d="M7.83-8.58L4.59-3.47L4.59 0L3.42 0L3.42-3.47L0.19-8.58L1.55-8.58L3.98-4.45L6.47-8.58L7.83-8.58ZM14.53 0L13.69-2.48L10.22-2.48L9.33 0L8.16 0L11.39-8.58L12.70-8.58L15.80 0L14.53 0ZM11.95-7.31L10.59-3.52L13.27-3.52L12-7.31L11.95-7.31ZM18.23-8.58L22.55-1.64L22.55-8.58L23.67-8.58L23.67 0L22.36 0L18-6.94L17.95-6.94L17.95 0L16.83 0L16.83-8.58L18.23-8.58ZM32.20-8.58L29.30-4.41L32.34 0L30.89 0L28.55-3.52L26.20 0L24.80 0L27.89-4.41L24.98-8.58L26.44-8.58L28.59-5.30L30.80-8.58L32.20-8.58ZM33.61-8.58L34.78-8.58L34.78 0L33.61 0L33.61-8.58ZM38.16-8.58L42.47-1.64L42.47-8.58L43.59-8.58L43.59 0L42.28 0L37.92-6.94L37.88-6.94L37.88 0L36.75 0L36.75-8.58L38.16-8.58ZM46.17 0L45.52 0L45.52-1.27L46.78-1.27L46.78-0.09Q46.78 1.45 45.52 1.69L45.52 1.69L45.52 1.08Q46.17 0.98 46.17 0L46.17 0ZM58.31-6.09L58.31-6.09L57.23-6.09Q57.14-7.73 55.08-7.83L55.08-7.83Q53.16-7.78 53.16-6.33L53.16-6.33Q53.16-5.39 54.19-5.25L54.19-5.25L56.63-4.69Q58.55-4.22 58.55-2.34L58.55-2.34Q58.50 0.05 55.17 0.14L55.17 0.14Q53.34 0.14 52.59-0.61L52.59-0.61Q51.66-1.31 51.70-2.77L51.70-2.77L52.83-2.77Q52.88-0.80 55.17-0.75L55.17-0.75Q57.42-0.80 57.47-2.20L57.47-2.20Q57.66-3.38 55.59-3.75L55.59-3.75L53.81-4.13Q51.98-4.64 51.98-6.19L51.98-6.19Q52.13-8.72 54.98-8.81L54.98-8.81Q58.22-8.81 58.31-6.09ZM61.17-5.06L65.67-5.06L65.67-8.58L66.84-8.58L66.84 0L65.67 0L65.67-3.98L61.17-3.98L61.17 0L60 0L60-8.58L61.17-8.58L61.17-5.06ZM74.30 0L73.45-2.48L69.98-2.48L69.09 0L67.92 0L71.16-8.58L72.47-8.58L75.56 0L74.30 0ZM71.72-7.31L70.36-3.52L73.03-3.52L71.77-7.31L71.72-7.31ZM82.27 0L81.42-2.48L77.95-2.48L77.06 0L75.89 0L79.13-8.58L80.44-8.58L83.53 0L82.27 0ZM79.69-7.31L78.33-3.52L81-3.52L79.73-7.31L79.69-7.31ZM85.97-8.58L90.28-1.64L90.28-8.58L91.41-8.58L91.41 0L90.09 0L85.73-6.94L85.69-6.94L85.69 0L84.56 0L84.56-8.58L85.97-8.58ZM99.94-8.58L97.03-4.41L100.08 0L98.63 0L96.28-3.52L93.94 0L92.53 0L95.63-4.41L92.72-8.58L94.17-8.58L96.33-5.30L98.53-8.58L99.94-8.58ZM101.34-8.58L102.52-8.58L102.52 0L101.34 0L101.34-8.58Z" transform="translate(-0.1875, 8.8125)"></path></g></g></g></g></g><defs v-gra="od"></defs></svg>